<svg width="46" height="46" viewBox="0 0 46 46" fill="none" xmlns="http://www.w3.org/2000/svg">
<path d="M31.3851 6.22887C33.6072 6.2355 35.7363 7.12116 37.3076 8.6924C38.8788 10.2637 39.7645 12.3928 39.7711 14.6149V31.3851C39.7645 33.6072 38.8788 35.7363 37.3076 37.3076C35.7363 38.8788 33.6072 39.7645 31.3851 39.7711H14.6149C12.3928 39.7645 10.2637 38.8788 8.6924 37.3076C7.12116 35.7363 6.2355 33.6072 6.22887 31.3851V14.6149C6.2355 12.3928 7.12116 10.2637 8.6924 8.6924C10.2637 7.12116 12.3928 6.2355 14.6149 6.22887H31.3851ZM31.3851 2.875H14.6149C8.15781 2.875 2.875 8.15781 2.875 14.6149V31.3851C2.875 37.8422 8.15781 43.125 14.6149 43.125H31.3851C37.8422 43.125 43.125 37.8422 43.125 31.3851V14.6149C43.125 8.15781 37.8422 2.875 31.3851 2.875Z" fill="#692C44"/>
<path d="M33.9007 14.6149C33.4032 14.6149 32.9168 14.4673 32.5031 14.1909C32.0894 13.9145 31.767 13.5216 31.5766 13.0619C31.3862 12.6023 31.3364 12.0965 31.4335 11.6085C31.5305 11.1205 31.7701 10.6722 32.1219 10.3204C32.4737 9.96861 32.922 9.72902 33.41 9.63196C33.898 9.53489 34.4038 9.58471 34.8634 9.77511C35.3231 9.96551 35.716 10.2879 35.9924 10.7016C36.2688 11.1153 36.4164 11.6017 36.4164 12.0992C36.4171 12.4298 36.3525 12.7572 36.2263 13.0628C36.1002 13.3683 35.9149 13.6459 35.6811 13.8796C35.4474 14.1134 35.1698 14.2987 34.8643 14.4248C34.5587 14.551 34.2313 14.6156 33.9007 14.6149ZM23 16.2914C24.3268 16.2914 25.6239 16.6848 26.7271 17.422C27.8303 18.1591 28.6902 19.2069 29.198 20.4327C29.7057 21.6585 29.8386 23.0074 29.5797 24.3088C29.3209 25.6101 28.6819 26.8055 27.7437 27.7437C26.8055 28.6819 25.6101 29.3209 24.3088 29.5797C23.0074 29.8386 21.6586 29.7057 20.4327 29.198C19.2069 28.6902 18.1591 27.8303 17.422 26.7271C16.6848 25.6239 16.2914 24.3268 16.2914 23C16.2933 21.2213 17.0007 19.5161 18.2584 18.2584C19.5161 17.0007 21.2213 16.2933 23 16.2914ZM23 12.9375C21.0098 12.9375 19.0643 13.5276 17.4096 14.6333C15.7548 15.739 14.4651 17.3106 13.7035 19.1492C12.9419 20.9879 12.7426 23.0111 13.1308 24.9631C13.5191 26.915 14.4775 28.708 15.8847 30.1152C17.292 31.5225 19.085 32.4809 21.0369 32.8691C22.9888 33.2574 25.0121 33.0581 26.8508 32.2965C28.6894 31.5349 30.261 30.2452 31.3667 28.5904C32.4723 26.9356 33.0625 24.9902 33.0625 23C33.0625 20.3312 32.0023 17.7718 30.1153 15.8847C28.2282 13.9976 25.6687 12.9375 23 12.9375Z" fill="#692C44"/>
</svg>
