<svg width="48" height="48" viewBox="0 0 48 48" fill="none" xmlns="http://www.w3.org/2000/svg">
<path fill-rule="evenodd" clip-rule="evenodd" d="M38.8809 9.1031C36.9394 7.16066 34.6329 5.62142 32.0941 4.57399C29.5554 3.52656 26.8345 2.99162 24.0881 2.99997C12.5625 2.99997 3.18 12.3356 3.17531 23.8125C3.17021 27.467 4.13353 31.0576 5.96719 34.2187L3 45L14.0859 42.1059C17.1546 43.7683 20.5897 44.6384 24.0797 44.6372H24.0881C35.6128 44.6372 44.9944 35.3006 45 23.8247C45.007 21.0877 44.4696 18.3766 43.4191 15.8493C42.3686 13.3219 40.8259 11.0287 38.8809 9.1031ZM24.0881 41.1243H24.0806C20.9694 41.1253 17.9148 40.2927 15.2344 38.7131L14.5997 38.3381L8.02125 40.0556L9.77719 33.6722L9.36375 33.0159C7.62411 30.2617 6.70242 27.0701 6.70594 23.8125C6.70594 14.2753 14.5069 6.5156 24.0947 6.5156C28.694 6.50739 33.1083 8.32641 36.3666 11.5726C39.625 14.8188 41.4604 19.2262 41.4694 23.8256C41.4656 33.3637 33.6684 41.1243 24.0881 41.1243ZM33.6216 28.169C33.0994 27.9084 30.5278 26.6503 30.0516 26.4768C29.5753 26.3034 29.2237 26.2162 28.8759 26.7375C28.5281 27.2587 27.5259 28.425 27.2212 28.7765C26.9166 29.1281 26.6119 29.1665 26.0897 28.9059C25.5675 28.6453 23.8828 28.0968 21.8869 26.325C20.3334 24.9459 19.2853 23.2434 18.9806 22.7231C18.6759 22.2028 18.9478 21.9206 19.2094 21.6618C19.4447 21.4284 19.7316 21.0543 19.9931 20.7506C20.2547 20.4468 20.3419 20.2293 20.5153 19.8825C20.6887 19.5356 20.6025 19.2318 20.4722 18.9722C20.3419 18.7125 19.2966 16.1522 18.8616 15.1106C18.4369 14.0962 18.0066 14.234 17.6859 14.2181C17.3812 14.2031 17.0297 14.1993 16.6837 14.1993C16.4193 14.2062 16.1591 14.2676 15.9194 14.3795C15.6797 14.4914 15.4657 14.6516 15.2906 14.85C14.8116 15.3712 13.4616 16.6312 13.4616 19.1887C13.4616 21.7462 15.3366 24.2212 15.5953 24.5681C15.8541 24.915 19.2797 30.1678 24.5212 32.4206C25.4946 32.8374 26.489 33.2029 27.5006 33.5156C28.7522 33.9112 29.8912 33.8559 30.7912 33.7218C31.7953 33.5728 33.885 32.4637 34.3191 31.2487C34.7531 30.0337 34.7541 28.9931 34.6237 28.7765C34.4934 28.56 34.1447 28.4287 33.6216 28.169Z" fill="#692C44"/>
</svg>
